<svg xmlns="http://www.w3.org/2000/svg" viewBox="0 0 410 404"><defs><linearGradient x1="6%" y1="13%" x2="60%" y2="80%" id="a"><stop stop-color="#41D1FF" offset="0%"/><stop stop-color="#BD34FE" offset="100%"/></linearGradient><linearGradient x1="7%" y1="6%" x2="95%" y2="90%" id="b"><stop stop-color="#FFEA83" offset="0%"/><stop stop-color="#FFDD35" offset="8%"/><stop stop-color="#FFA800" offset="100%"/></linearGradient></defs><path d="M399 52L215 390c-7 13-25 13-32 0L10 52c-8-14 4-30 20-28l170 21a19 19 0 0 0 10-2l152-61c15-6 29 9 22 24z" fill="url(#a)"/><path d="M292 1L134 60a7 7 0 0 0-4 5l-17 141c-1 8 7 14 14 11l38-12c8-3 16 4 14 12l-11 54c-2 9 8 15 15 10l23-17c6-4 14-1 16 6l34 99c3 10 18 9 20-1l59-332c2-11-8-20-18-16z" fill="url(#b)"/></svg>
